<svg width="59" height="59" viewBox="0 0 59 59" fill="none" xmlns="http://www.w3.org/2000/svg">
  <path
    d="M8.32819 8.32941C12.0962 4.56137 17.7692 4.24389 23.4588 6.04018C25.7311 6.77892 27.92 7.75338 29.9895 8.94766C32.2258 7.67773 34.4176 6.70578 36.5202 6.04018C42.2126 4.24111 47.8828 4.56137 51.6508 8.32941C55.4189 12.0974 55.7391 17.7704 53.94 23.46C53.2013 25.7324 52.2268 27.9212 51.0326 29.9907C52.3025 32.227 53.2744 34.4188 53.94 36.5214C55.7391 42.2111 55.4189 47.884 51.6508 51.652C47.8828 55.4201 42.2099 55.7403 36.5202 53.9413C34.2479 53.2025 32.059 52.2281 29.9895 51.0338C27.7532 52.3037 25.5614 53.2757 23.4588 53.9413C17.7692 55.7376 12.0962 55.4173 8.32819 51.652C4.56015 47.884 4.24267 42.2111 6.03896 36.5214C6.70456 34.416 7.67651 32.227 8.94644 29.9907C7.75216 27.9212 6.7777 25.7324 6.03896 23.46C4.24267 17.7704 4.56294 12.0974 8.32819 8.32941ZM12.475 35.3072C12.0405 36.2475 11.6647 37.2139 11.3499 38.2007C9.85712 42.9268 10.5979 46.0432 12.2689 47.7141C13.9371 49.3851 17.0534 50.1231 21.7795 48.6304C22.7078 48.337 23.6732 47.962 24.6758 47.5053C22.3833 45.7545 20.2117 43.8508 18.1758 41.8073C16.1313 39.7714 14.2267 37.5998 12.475 35.3072ZM47.5068 35.3072C45.7551 37.5998 43.8505 39.7714 41.806 41.8073C39.7702 43.8517 37.5986 45.7563 35.306 47.508C36.3067 47.9629 37.2712 48.337 38.1995 48.6304C42.9284 50.1231 46.0419 49.3823 47.7129 47.7141C49.3839 46.0432 50.1247 42.9296 48.6319 38.2007C48.3172 37.213 47.9414 36.2457 47.5068 35.3044V35.3072ZM29.9895 25.8133C28.8816 25.8133 27.819 26.2534 27.0356 27.0368C26.2522 27.8203 25.8121 28.8828 25.8121 29.9907C25.8121 31.0986 26.2522 32.1612 27.0356 32.9446C27.819 33.728 28.8816 34.1681 29.9895 34.1681C31.0974 34.1681 32.16 33.728 32.9434 32.9446C33.7268 32.1612 34.1669 31.0986 34.1669 29.9907C34.1669 28.8828 33.7268 27.8203 32.9434 27.0368C32.16 26.2534 31.0974 25.8133 29.9895 25.8133ZM38.1995 11.3511C37.2117 11.6659 36.2444 12.0416 35.3032 12.4762C37.5967 14.2269 39.7692 16.1306 41.806 18.1742C43.8505 20.21 45.7551 22.3817 47.5068 24.6743C47.9636 23.6735 48.3377 22.709 48.6292 21.7807C50.1247 17.0519 49.3839 13.9383 47.7129 12.2673C46.0419 10.5964 42.9284 9.85834 38.1995 11.3511ZM12.2661 12.2701C10.5951 13.9383 9.85712 17.0519 11.3499 21.7807C11.6432 22.709 12.0182 23.6745 12.475 24.677C14.1181 22.5048 16.0202 20.3297 18.1758 18.1742C20.2108 16.1308 22.3815 14.2271 24.673 12.4762C23.7327 12.0417 22.7663 11.666 21.7795 11.3511C17.0534 9.85834 13.9371 10.5991 12.2661 12.2701Z"
    fill="url(#paint0_linear_143_31456)" />
  <path
    d="M35.9177 4.13354C41.9485 2.22756 48.5406 2.39033 53.0652 6.91479C57.5898 11.4394 57.7536 18.0349 55.8474 24.0632L55.8445 24.071L55.8425 24.0779C55.1781 26.1217 54.3306 28.101 53.3162 29.9939C54.3855 31.9986 55.2338 33.9826 55.8464 35.9177L55.8474 35.9187C57.7535 41.9469 57.5896 48.5417 53.0652 53.0662C48.5406 57.5908 41.9451 57.7546 35.9167 55.8484L35.9099 55.8455L35.9021 55.8435C33.8579 55.1789 31.8784 54.3319 29.9851 53.3171C27.9806 54.3863 25.9972 55.2359 24.0623 55.8484H24.0613C18.0337 57.7514 11.4392 57.5879 6.91479 53.0671L6.91382 53.0662C2.38908 48.5413 2.22898 41.9464 4.13159 35.9197V35.9187C4.74435 33.9804 5.59282 31.9976 6.66187 29.9939C5.64748 28.1011 4.80088 26.1216 4.13647 24.0779L4.13452 24.0701L4.13159 24.0623C2.22855 18.0345 2.39271 11.4402 6.91382 6.91577V6.91479C11.2973 2.53146 17.6236 2.24461 23.4939 3.96069L24.0613 4.13257L24.0769 4.13843C26.1208 4.80289 28.1 5.64931 29.9929 6.66382C31.9976 5.59454 33.9816 4.74612 35.9167 4.13354H35.9177ZM13.113 39.2781C12.0184 43.0682 12.6905 45.1309 13.5105 46.1111L13.6833 46.2996L13.6843 46.3015C14.5712 47.1897 16.647 48.0378 20.7029 46.866C19.34 45.7042 18.0232 44.4879 16.7585 43.2185V43.2175C15.49 41.9541 14.2741 40.6396 13.113 39.2781ZM46.8669 39.2781C45.7059 40.6395 44.4908 41.9542 43.2224 43.2175C41.9581 44.4872 40.6425 45.7039 39.28 46.866C43.3341 48.0356 45.4088 47.1878 46.2996 46.2986C47.1899 45.4073 48.0375 43.3327 46.8669 39.2781ZM29.99 27.8132C29.4126 27.8132 28.8583 28.0427 28.45 28.4509C28.0416 28.8593 27.8123 29.4135 27.8123 29.991C27.8123 30.5683 28.0417 31.1218 28.45 31.53C28.8583 31.9384 29.4125 32.1677 29.99 32.1677C30.5673 32.1676 31.1208 31.9383 31.5291 31.53C31.9373 31.1218 32.1667 30.5683 32.1667 29.991C32.1667 29.4135 31.9374 28.8593 31.5291 28.4509C31.1208 28.0428 30.5672 27.8134 29.99 27.8132ZM20.7009 13.114C16.6483 11.9439 14.571 12.7937 13.6804 13.6843L13.6794 13.6853C12.7915 14.5718 11.9428 16.6439 13.113 20.7C14.2412 19.3798 15.4572 18.0638 16.7615 16.7595C18.0249 15.491 19.3394 14.2751 20.7009 13.114ZM46.2986 13.6814C45.4085 12.7914 43.3339 11.9433 39.2761 13.115C40.6377 14.2751 41.953 15.4891 43.2166 16.7566C44.4864 18.021 45.7038 19.3373 46.866 20.7C48.038 16.6458 47.1889 14.5717 46.2986 13.6814Z"
    stroke="url(#paint1_linear_143_31456)" stroke-opacity="0.1" stroke-width="4" />
  <defs>
    <linearGradient id="paint0_linear_143_31456" x1="55" y1="10.3138" x2="28.4934" y2="59.2588"
      gradientUnits="userSpaceOnUse">
      <stop stop-color="#DFFF38" />
      <stop offset="1" stop-color="#DFFF38" stop-opacity="0.1" />
    </linearGradient>
    <linearGradient id="paint1_linear_143_31456" x1="29.9901" y1="4.98022" x2="29.9901" y2="55.0012"
      gradientUnits="userSpaceOnUse">
      <stop stop-color="#DFFF38" />
      <stop offset="1" stop-color="#DFFF38" stop-opacity="0" />
    </linearGradient>
  </defs>
</svg>