<svg width="64" height="58" viewBox="0 0 64 58" fill="none" xmlns="http://www.w3.org/2000/svg">
  <path
    d="M18.1787 4.81849C18.1364 4.81707 18.0946 4.82717 18.0576 4.84772C18.0206 4.86827 17.9899 4.89849 17.9687 4.93515L4.03452 28.8814C4.01226 28.9179 4.00049 28.9599 4.00049 29.0027C4.00049 29.0455 4.01226 29.0875 4.03452 29.124L18.1251 53.0633C18.2184 53.2219 18.4517 53.2219 18.545 53.0633L32.4793 29.1194C32.5008 29.0824 32.5118 29.0402 32.511 28.9974C32.5101 28.9546 32.4976 28.9128 32.4746 28.8767L18.3887 4.93515C18.3676 4.89849 18.3369 4.86827 18.2999 4.84772C18.2629 4.82717 18.221 4.81707 18.1787 4.81849ZM38.6041 4.81849C38.562 4.81839 38.5207 4.82943 38.4843 4.85049C38.4479 4.87156 38.4177 4.90189 38.3968 4.93841C38.376 4.97492 38.3652 5.01631 38.3655 5.05836C38.3658 5.10042 38.3773 5.14163 38.3987 5.17781L52.1976 28.998L38.3987 52.8183C38.3773 52.8545 38.3658 52.8957 38.3655 52.9377C38.3652 52.9798 38.376 53.0212 38.3968 53.0577C38.4177 53.0942 38.4479 53.1245 38.4843 53.1456C38.5207 53.1667 38.562 53.1777 38.6041 53.1776H45.8908C45.9323 53.1782 45.9733 53.1677 46.0093 53.1472C46.0454 53.1267 46.0754 53.0969 46.0962 53.0609L59.9674 29.117C59.9887 29.081 60 29.0399 60 28.998C60 28.9562 59.9887 28.9151 59.9674 28.8791L46.0962 4.93749C46.0757 4.9011 46.0459 4.87087 46.0098 4.84994C45.9736 4.82901 45.9326 4.81815 45.8908 4.81849H38.6041Z"
    fill="url(#paint0_linear_143_31454)" />
  <path
    d="M24.4847 4.85037C24.5211 4.82931 24.5624 4.81826 24.6045 4.81837H31.8912C31.933 4.81802 31.974 4.82888 32.0102 4.84981C32.0463 4.87074 32.0761 4.90098 32.0966 4.93736L45.9678 28.8789C45.9891 28.9149 46.0004 28.956 46.0004 28.9979C46.0004 29.0398 45.9891 29.0809 45.9678 29.1169L32.0966 53.0608C32.0758 53.0968 32.0458 53.1265 32.0098 53.147C31.9737 53.1675 31.9327 53.1781 31.8912 53.1775H24.6045C24.5624 53.1776 24.5211 53.1665 24.4847 53.1455C24.4483 53.1244 24.4181 53.0941 24.3973 53.0576C24.3764 53.021 24.3656 52.9796 24.3659 52.9376C24.3662 52.8955 24.3777 52.8543 24.3991 52.8181L38.198 28.9979L24.3991 5.17769C24.3777 5.14151 24.3662 5.10029 24.3659 5.05824C24.3656 5.01619 24.3764 4.9748 24.3973 4.93828C24.4181 4.90177 24.4483 4.87143 24.4847 4.85037Z"
    fill="url(#paint1_linear_143_31454)" />
  <path
    d="M18.2632 2.81934C18.6159 2.83144 18.9613 2.92755 19.271 3.09961C19.62 3.29352 19.9099 3.57773 20.1118 3.92188L34.1987 27.8623H34.1968C34.3941 28.1945 34.5028 28.5719 34.5103 28.959L34.5083 29.1123C34.4907 29.4689 34.388 29.8172 34.2075 30.127L34.2065 30.126L20.2739 54.0693L20.269 54.0771C19.4024 55.5504 17.2675 55.5504 16.4009 54.0771L2.31104 30.1387L2.31299 30.1377C2.13583 29.8379 2.02922 29.5025 2.00537 29.1562L2.00049 29.0029L2.00537 28.8496C2.02894 28.5065 2.13302 28.1737 2.30713 27.876H2.30615L16.2397 3.92969C16.4419 3.58177 16.7345 3.2951 17.0864 3.09961L17.2212 3.03027C17.4949 2.90167 17.792 2.82971 18.0942 2.81934H18.2632ZM31.8911 2.81836V2.81934C32.2351 2.81902 32.5739 2.89715 32.8813 3.04883L33.0132 3.11914L33.1401 3.19824C33.4289 3.39252 33.669 3.65231 33.8403 3.95703L33.8394 3.95801L47.6987 27.876H47.6978C47.8958 28.2168 48.0005 28.6039 48.0005 28.998C48.0005 29.3917 47.8953 29.7777 47.6978 30.1182L47.6987 30.1191L33.8276 54.0596L33.8286 54.0605C33.63 54.4046 33.3431 54.6894 32.9976 54.8857C32.6603 55.0773 32.2791 55.1773 31.8911 55.1768L24.604 55.1777V55.1768C24.2103 55.1768 23.8235 55.074 23.4829 54.877C23.1407 54.6789 22.8569 54.3933 22.6606 54.0498C22.4645 53.7065 22.3626 53.3173 22.3657 52.9219L22.3716 52.7734C22.3966 52.4364 22.4981 52.1087 22.6685 51.8154L35.8862 28.9971L22.6685 6.18066V6.17969C22.4734 5.8437 22.3688 5.46278 22.3657 5.07422C22.3626 4.67883 22.4646 4.28954 22.6606 3.94629C22.8569 3.60289 23.1406 3.31721 23.4829 3.11914L23.6138 3.0498C23.9212 2.89809 24.2599 2.81932 24.604 2.81934L31.8911 2.81836ZM45.8911 2.81836V2.81934C46.2348 2.81908 46.5732 2.89737 46.8804 3.04883L47.0122 3.11914L47.1392 3.19922C47.4208 3.38873 47.6553 3.64055 47.8257 3.93555L47.8267 3.93457L61.6978 27.876H61.6968C61.8948 28.2167 62.0005 28.6035 62.0005 28.998C62.0005 29.395 61.8943 29.7847 61.6938 30.127L47.8276 54.0596L47.8286 54.0605C47.63 54.4047 47.3428 54.6895 46.9976 54.8857C46.6604 55.0773 46.279 55.1773 45.8911 55.1768V55.1777H38.604V55.1768C38.2102 55.1768 37.8235 55.074 37.4829 54.877C37.1405 54.6788 36.8568 54.3931 36.6606 54.0498C36.4644 53.7064 36.3626 53.3173 36.3657 52.9219L36.3716 52.7744C36.3966 52.437 36.4979 52.1091 36.6685 51.8154L49.8862 28.998L36.6685 6.18066V6.17969C36.4981 5.88624 36.3965 5.55878 36.3716 5.22168L36.3657 5.07422C36.3626 4.67866 36.4645 4.28959 36.6606 3.94629L36.7378 3.82031C36.9282 3.53292 37.1833 3.29252 37.4829 3.11914L37.6128 3.0498C37.9205 2.8979 38.2596 2.81926 38.604 2.81934L45.8911 2.81836Z"
    stroke="url(#paint2_linear_143_31454)" stroke-opacity="0.1" stroke-width="4" />
  <defs>
    <linearGradient id="paint0_linear_143_31454" x1="60" y1="9.97526" x2="36.5129" y2="60.193"
      gradientUnits="userSpaceOnUse">
      <stop stop-color="#DFFF38" />
      <stop offset="1" stop-color="#DFFF38" stop-opacity="0.06" />
    </linearGradient>
    <linearGradient id="paint1_linear_143_31454" x1="60" y1="9.97526" x2="36.5129" y2="60.193"
      gradientUnits="userSpaceOnUse">
      <stop stop-color="#DFFF38" />
      <stop offset="1" stop-color="#DFFF38" stop-opacity="0.06" />
    </linearGradient>
    <linearGradient id="paint2_linear_143_31454" x1="32.0002" y1="4.81836" x2="32.0002" y2="53.1823"
      gradientUnits="userSpaceOnUse">
      <stop stop-color="#DFFF38" />
      <stop offset="1" stop-color="#DFFF38" stop-opacity="0" />
    </linearGradient>
  </defs>
</svg>