<svg width="48" height="53" viewBox="0 0 48 53" fill="none" xmlns="http://www.w3.org/2000/svg">
  <path
    d="M41.2297 7.39938C38.2583 9.74399 35.5863 10.2748 33.0149 9.99322C30.3177 9.70014 27.6617 8.5163 24.6994 7.18246L24.5783 7.12707C21.7554 5.85323 18.6354 4.44554 15.3531 4.08785C11.8994 3.7117 8.336 4.494 4.65829 7.39707C4.45318 7.559 4.2873 7.76598 4.17324 8.00229C4.05918 8.2386 3.99993 8.49804 4 8.76091V47.2692C4 47.7283 4.18061 48.1685 4.5021 48.4931C4.82359 48.8177 5.25963 49 5.71429 49C6.16894 49 6.60498 48.8177 6.92647 48.4931C7.24796 48.1685 7.42857 47.7283 7.42857 47.2692V35.8785C10.1394 33.9516 12.6034 33.5177 14.9851 33.7785C17.6823 34.0693 20.3383 35.2531 23.3006 36.5893L23.4217 36.6423C26.2446 37.9185 29.3646 39.3239 32.6469 39.6816C36.1006 40.0577 39.664 39.2754 43.3417 36.3724C43.5468 36.2104 43.7127 36.0034 43.8268 35.7671C43.9408 35.5308 44.0001 35.2714 44 35.0085V8.76091C43.9997 8.43669 43.9091 8.11907 43.7387 7.84427C43.5683 7.56947 43.3248 7.34852 43.036 7.20661C42.7473 7.0647 42.4249 7.00752 42.1055 7.04161C41.7861 7.07569 41.4827 7.19965 41.2297 7.39938Z"
    fill="url(#paint0_linear_143_31466)" />
  <path
    d="M46 35.0078L45.9941 35.2188C45.9666 35.7099 45.8426 36.192 45.6279 36.6367C45.3827 37.1448 45.0251 37.5918 44.5811 37.9424C40.4909 41.171 36.4044 42.1026 32.4307 41.6699C28.7885 41.273 25.3881 39.7265 22.6191 38.4746L22.498 38.4209L22.4883 38.417L22.4785 38.4121C19.4494 37.0458 17.0921 36.0169 14.7705 35.7666H14.7676C13.0915 35.5831 11.3721 35.8058 9.42871 36.96V47.2695C9.42863 48.2527 9.0419 49.1994 8.34766 49.9004C7.65259 50.6021 6.70516 51 5.71387 51C4.72273 50.9999 3.77602 50.602 3.08105 49.9004C2.38677 49.1994 2.00008 48.2527 2 47.2695V8.76074C1.99996 8.19744 2.12692 7.64072 2.37207 7.13281L2.46973 6.94531C2.70855 6.51463 3.03044 6.13387 3.41895 5.82715L3.80273 5.53125C7.76471 2.54176 11.7198 1.68043 15.5693 2.09961C18.7646 2.44782 21.7745 3.68332 24.333 4.82422L25.4014 5.30371L25.4102 5.30859L25.5205 5.3584C28.5502 6.72261 30.9075 7.75237 33.2305 8.00488H33.2324C35.2823 8.22932 37.4317 7.84872 39.9912 5.8291C40.5389 5.39691 41.1981 5.12695 41.8936 5.05273L42.1543 5.03418C42.6764 5.01561 43.1962 5.10805 43.6797 5.30469L43.918 5.41211L44.1484 5.53516C44.599 5.79748 44.9886 6.15149 45.293 6.57324L45.4385 6.79004L45.5674 7.01562C45.8505 7.55216 45.9993 8.15053 46 8.75879V35.0078Z"
    stroke="url(#paint1_linear_143_31466)" stroke-opacity="0.1" stroke-width="4" />
  <defs>
    <linearGradient id="paint0_linear_143_31466" x1="44" y1="8.79821" x2="18.6978" y2="50.329"
      gradientUnits="userSpaceOnUse">
      <stop stop-color="#DFFF38" />
      <stop offset="1" stop-color="#DFFF38" stop-opacity="0.1" />
    </linearGradient>
    <linearGradient id="paint1_linear_143_31466" x1="24" y1="4" x2="24" y2="49" gradientUnits="userSpaceOnUse">
      <stop stop-color="#DFFF38" />
      <stop offset="1" stop-color="#DFFF38" stop-opacity="0" />
    </linearGradient>
  </defs>
</svg>