<svg width="174" height="183" viewBox="0 0 174 183" fill="none" xmlns="http://www.w3.org/2000/svg">
  <path
    d="M25.1785 49.3757C26.3671 49.3757 26.9656 48.6792 27.267 47.5834C30.3487 30.9599 30.1535 30.5607 47.4639 27.2776C48.6524 27.078 49.3528 26.3857 49.3528 25.188C49.3528 23.9945 48.6567 23.298 47.4596 23.0983C30.2511 19.6157 30.7478 19.2164 27.267 2.78828C26.9699 1.69675 26.3713 1.00021 25.1785 1.00021C23.9857 1.00021 23.3872 1.69675 23.0858 2.78828C19.6051 19.2164 20.1994 19.6114 2.89319 23.0983C1.79802 23.2937 1 23.9903 1 25.188C1 26.3814 1.79802 27.078 2.88894 27.2776C20.2036 30.7603 20.0041 30.9599 23.0858 47.5834C23.383 48.6792 23.9857 49.3757 25.1785 49.3757ZM94.6999 182C97.2892 182 99.1782 180.106 99.6748 177.417C106.738 122.871 114.4 114.606 168.322 108.634C171.107 108.337 173 106.247 173 103.656C173 101.066 171.107 99.0779 168.322 98.6786C114.4 92.7071 106.738 84.4462 99.6748 29.8953C99.1782 27.2068 97.2892 25.4145 94.6999 25.4145C92.1106 25.4145 90.2259 27.2068 89.8268 29.8953C82.7635 84.4462 75.0039 92.7071 21.1794 98.6786C18.293 99.0779 16.404 101.07 16.404 103.656C16.404 106.247 18.293 108.337 21.1794 108.634C74.902 115.701 82.3644 122.968 89.8268 177.417C90.2259 180.106 92.1148 182 94.6999 182Z"
    stroke="url(#paint0_linear_143_37165)" stroke-width="2" stroke-linecap="round" stroke-linejoin="round" />
  <defs>
    <linearGradient id="paint0_linear_143_37165" x1="87" y1="1" x2="87" y2="182" gradientUnits="userSpaceOnUse">
      <stop stop-color="#1B1B1B" />
      <stop offset="1" stop-color="white" />
    </linearGradient>
  </defs>
</svg>