<svg width="91" height="91" viewBox="0 0 91 91" fill="none" xmlns="http://www.w3.org/2000/svg">
  <path
    d="M68.1568 68.1569V51.2819L62.5318 56.9069L51.2818 45.6569L62.5318 34.4068L68.1568 40.0318L68.1568 23.1568L51.2818 23.1568L56.9068 28.7818L45.6567 40.0318L34.4067 28.7818L40.0317 23.1568L23.1567 23.1568L23.1567 40.0318L28.7817 34.4068L40.0317 45.6569L28.7817 56.9069L23.1567 51.2819V68.1569H40.0317L34.4067 62.5319L45.6567 51.2819L56.9068 62.5319L51.2818 68.1569H68.1568Z"
    fill="url(#paint0_linear_143_31460)" />
  <path
    d="M70.1569 44.8606L62.532 37.2357L54.1103 45.6575L62.5313 54.0785L70.1569 46.453L70.1562 51.2819L70.1569 68.1564L70.1562 70.1569H46.4529L54.0778 62.532L45.6567 54.111L37.2357 62.532L44.8606 70.1569H21.1573L21.1566 68.1564L21.1573 51.2819L21.1566 46.453L28.7822 54.0785L37.2032 45.6575L28.7815 37.2357L21.1566 44.8606V21.1573L23.1571 21.1566L40.0316 21.1573L44.8606 21.1566L37.235 28.7822L45.6567 37.2039L54.0785 28.7822L46.4529 21.1566L51.2818 21.1573L68.1564 21.1566L70.1569 21.1573V44.8606Z"
    stroke="url(#paint1_linear_143_31460)" stroke-opacity="0.1" stroke-width="4" />
  <defs>
    <linearGradient id="paint0_linear_143_31460" x1="85.8586" y1="50.4551" x2="17.9804" y2="70.642"
      gradientUnits="userSpaceOnUse">
      <stop stop-color="#DFFF38" />
      <stop offset="1" stop-color="#DFFF38" stop-opacity="0" />
    </linearGradient>
    <linearGradient id="paint1_linear_143_31460" x1="68.1568" y1="23.1568" x2="23.1567" y2="68.1569"
      gradientUnits="userSpaceOnUse">
      <stop stop-color="#DFFF38" />
      <stop offset="1" stop-color="#DFFF38" stop-opacity="0" />
    </linearGradient>
  </defs>
</svg>