<svg width="48" height="58" viewBox="0 0 48 58" fill="none" xmlns="http://www.w3.org/2000/svg">
  <path
    d="M40.3384 41.0121L23.6296 58L6.92086 41.0121C3.61623 37.6522 1.36576 33.3715 0.454026 28.7112C-0.457705 24.0509 0.0102575 19.2204 1.79874 14.8306C3.58721 10.4407 6.61588 6.68864 10.5017 4.04882C14.3876 1.409 18.9561 0 23.6296 0C28.3031 0 32.8716 1.409 36.7575 4.04882C40.6434 6.68864 43.672 10.4407 45.4605 14.8306C47.249 19.2204 47.717 24.0509 46.8052 28.7112C45.8935 33.3715 43.643 37.6522 40.3384 41.0121Z"
    fill="#DFFF38" />
  <path d="M28.1619 26.364H19.3594V35.1664H28.1619V26.364Z" fill="black" />
  <path d="M40.8146 17.5615H6.625V26.364H40.8146V17.5615Z" fill="url(#paint0_linear_143_37410)" />
  <defs>
    <linearGradient id="paint0_linear_143_37410" x1="6.625" y1="21.9627" x2="40.8146" y2="21.9627"
      gradientUnits="userSpaceOnUse">
      <stop stop-color="#DFFF38" stop-opacity="0" />
      <stop offset="1" />
    </linearGradient>
  </defs>
</svg>