<svg width="50" height="61" viewBox="0 0 50 61" fill="none" xmlns="http://www.w3.org/2000/svg">
  <path
    d="M5.827 8.79875L25 4.57886L44.173 8.79875C44.6911 8.91283 45.1545 9.19848 45.4867 9.60854C45.8188 10.0186 45.9999 10.5286 46 11.0543V34.1343C45.9998 36.417 45.4307 38.6643 44.3431 40.6768C43.2555 42.6893 41.683 44.4047 39.7653 45.6708L25 55.421L10.2347 45.6708C8.3173 44.4049 6.74507 42.6899 5.65748 40.6778C4.56988 38.6657 4.00055 36.4189 4 34.1366V11.0543C4.00009 10.5286 4.18116 10.0186 4.51331 9.60854C4.84546 9.19848 5.30885 8.91283 5.827 8.79875Z"
    fill="url(#paint0_linear_143_31452)" />
  <path
    d="M25.4297 2.62573L44.6025 6.84546H44.6035C45.5614 7.05645 46.4221 7.58529 47.041 8.34937C47.6603 9.11387 47.9997 10.0678 48 11.0535V34.1345L47.9922 34.6248C47.9158 37.0708 47.2697 39.4679 46.1025 41.6277C44.8575 43.9314 43.0585 45.8928 40.8672 47.3396L26.1025 57.0896L25 57.8181L23.8975 57.0896L9.13281 47.3396C6.94184 45.893 5.14343 43.9319 3.89844 41.6287C2.65343 39.3254 2.00069 36.7522 2 34.1375V11.0535L2.00391 10.8699C2.04356 9.94988 2.37826 9.0663 2.95898 8.34937C3.57792 7.58529 4.43862 7.05646 5.39648 6.84546H5.39746L24.5703 2.62573L25 2.53101L25.4297 2.62573Z"
    stroke="url(#paint1_linear_143_31452)" stroke-opacity="0.1" stroke-width="4" />
  <defs>
    <linearGradient id="paint0_linear_143_31452" x1="46" y1="10" x2="16.5" y2="55" gradientUnits="userSpaceOnUse">
      <stop stop-color="#DFFF38" />
      <stop offset="1" stop-color="#DFFF38" stop-opacity="0" />
    </linearGradient>
    <linearGradient id="paint1_linear_143_31452" x1="25" y1="4.57886" x2="25" y2="55.421"
      gradientUnits="userSpaceOnUse">
      <stop stop-color="#DFFF38" />
      <stop offset="1" stop-color="#DFFF38" stop-opacity="0" />
    </linearGradient>
  </defs>
</svg>