<svg width="63" height="66" viewBox="0 0 63 66" fill="none" xmlns="http://www.w3.org/2000/svg">
  <path
    d="M11.6612 19.3198C12.0378 19.3198 12.2275 19.0992 12.323 18.7522C13.2995 13.4878 13.2376 13.3614 18.7226 12.3217C19.0992 12.2585 19.3211 12.0392 19.3211 11.6599C19.3211 11.282 19.1005 11.0614 18.7212 10.9982C13.2685 9.89528 13.4259 9.76885 12.323 4.56632C12.2288 4.22065 12.0392 4.00007 11.6612 4.00007C11.2833 4.00007 11.0936 4.22065 10.9981 4.56632C9.89522 9.76885 10.0835 9.89394 4.59988 10.9982C4.25286 11.0601 4 11.2807 4 11.6599C4 12.0379 4.25286 12.2585 4.59853 12.3217C10.0849 13.4246 10.0216 13.4878 10.9981 18.7522C11.0923 19.0992 11.2833 19.3198 11.6612 19.3198ZM33.6898 61.3198C34.5103 61.3198 35.1088 60.72 35.2662 59.8686C37.5043 42.5945 39.932 39.9771 57.0178 38.086C57.9001 37.9918 58.5 37.3301 58.5 36.5096C58.5 35.6892 57.9001 35.0597 57.0178 34.9333C39.932 33.0422 37.5043 30.4261 35.2662 13.1507C35.1088 12.2993 34.5103 11.7317 33.6898 11.7317C32.8693 11.7317 32.2722 12.2993 32.1457 13.1507C29.9076 30.4261 27.4489 33.0422 10.3941 34.9333C9.47946 35.0597 8.88092 35.6905 8.88092 36.5096C8.88092 37.3301 9.47946 37.9918 10.3941 38.086C27.4166 40.3241 29.7812 42.6254 32.1457 59.8686C32.2722 60.72 32.8707 61.3198 33.6898 61.3198Z"
    fill="url(#paint0_linear_143_31368)" />
  <path
    d="M33.6895 9.73145C35.6299 9.73145 36.9296 11.1493 37.2324 12.7871L37.2422 12.8398L37.25 12.8936C37.8079 17.2001 38.3626 20.4652 39.1221 23.0029C39.8749 25.5185 40.7926 27.1899 41.9951 28.4033C44.2919 30.7207 48.07 31.8429 55.667 32.7637L57.2383 32.9453L57.2695 32.9492L57.3018 32.9531C59.0175 33.1991 60.5 34.5488 60.5 36.5098C60.4999 38.413 59.0678 39.8789 57.2305 40.0752L57.2295 40.0742C48.5778 41.0322 44.4442 42.145 41.9951 44.6162C40.7926 45.8296 39.8749 47.5012 39.1221 50.0166C38.3626 52.5543 37.8079 55.8198 37.25 60.126L37.2422 60.1787L37.2324 60.2324C36.9402 61.8123 35.6814 63.3203 33.6895 63.3203C31.7022 63.3201 30.4113 61.8076 30.167 60.1621L30.166 60.1514L30.1641 60.1406C29.5745 55.8412 29.0007 52.6015 28.2314 50.0918C27.4695 47.606 26.5524 45.9629 25.3535 44.7656C24.1556 43.5694 22.5235 42.6654 20.0645 41.9238C17.5797 41.1745 14.3792 40.6275 10.1338 40.0693V40.0674C8.36398 39.8602 6.97083 38.5046 6.88477 36.6885L6.88086 36.5098L6.88574 36.3262C6.97549 34.449 8.43792 33.1847 10.1201 32.9521L10.1465 32.9482L10.1738 32.9453C18.815 31.9871 22.952 30.8756 25.4062 28.4023C26.6109 27.1883 27.5302 25.516 28.2852 23.001C29.0467 20.4638 29.6043 17.1993 30.1621 12.8936L30.165 12.875L30.167 12.8564C30.42 11.1539 31.7533 9.73162 33.6895 9.73145ZM11.8926 2.00977C12.4341 2.05364 12.9914 2.25513 13.4561 2.68457C13.8799 3.07625 14.0942 3.53694 14.209 3.89453L14.2529 4.04102L14.2676 4.0957L14.2793 4.15137C14.5668 5.50764 14.7421 6.38066 14.9385 7.04297C15.127 7.67869 15.2679 7.86476 15.3398 7.94043C15.4047 8.00861 15.5747 8.15776 16.1904 8.35645C16.8318 8.5634 17.7274 8.75677 19.1182 9.03809H19.1172C19.5919 9.12793 20.1637 9.34958 20.6279 9.84863C21.136 10.395 21.3213 11.064 21.3213 11.6602C21.3212 12.2586 21.1351 12.9271 20.627 13.4727C20.1545 13.9799 19.5711 14.1986 19.0938 14.2852L19.0947 14.2871C17.6946 14.5525 16.7879 14.7355 16.1348 14.9365C15.505 15.1303 15.3325 15.2786 15.2705 15.3428C15.2061 15.4094 15.0661 15.5858 14.8877 16.2168C14.7021 16.8733 14.5421 17.7532 14.2891 19.1172L14.2734 19.2012L14.251 19.2832C14.1494 19.6521 13.9383 20.1874 13.4561 20.6338C12.9258 21.1246 12.2742 21.3203 11.6611 21.3203C11.05 21.3203 10.3985 21.1261 9.86719 20.6357C9.38229 20.1883 9.16996 19.6506 9.06836 19.2764L9.04688 19.1973L9.03125 19.1172C8.77833 17.7536 8.61844 16.8785 8.43359 16.2285C8.25654 15.606 8.11924 15.4362 8.05762 15.373C7.99449 15.3084 7.81887 15.1598 7.18066 14.9609C6.52017 14.7552 5.60912 14.5647 4.2041 14.2822V14.2812C3.73223 14.1892 3.18221 13.9661 2.73047 13.498C2.30061 13.0526 2.06419 12.492 2.01172 11.9102L2 11.6602L2.01074 11.4102C2.06297 10.829 2.29939 10.2675 2.73145 9.82031C3.18311 9.35298 3.73264 9.12957 4.20508 9.03809V9.03711C5.60337 8.75553 6.50214 8.56242 7.14453 8.35547C7.76146 8.15671 7.92771 8.00835 7.98926 7.94336C8.05849 7.87024 8.19735 7.68666 8.38477 7.04785C8.57986 6.38281 8.7538 5.51077 9.04199 4.15137L9.05371 4.0918L9.07031 4.03418C9.17219 3.66543 9.38391 3.12957 9.86719 2.68359C10.3979 2.1939 11.0493 2.00002 11.6611 2L11.8926 2.00977Z"
    stroke="url(#paint1_linear_143_31368)" stroke-opacity="0.1" stroke-width="4" />
  <defs>
    <linearGradient id="paint0_linear_143_31368" x1="58.5" y1="10.1118" x2="27.3055" y2="64.8808"
      gradientUnits="userSpaceOnUse">
      <stop stop-color="#DFFF38" />
      <stop offset="1" stop-color="#DFFF38" stop-opacity="0" />
    </linearGradient>
    <linearGradient id="paint1_linear_143_31368" x1="31.25" y1="4" x2="31.25" y2="61.3198"
      gradientUnits="userSpaceOnUse">
      <stop stop-color="#DFFF38" />
      <stop offset="1" stop-color="#DFFF38" stop-opacity="0" />
    </linearGradient>
  </defs>
</svg>