<svg width="164" height="164" viewBox="0 0 164 164" fill="none" xmlns="http://www.w3.org/2000/svg">
  <rect opacity="0.1" x="0.169922" y="21.3389" width="141.903" height="141.903" rx="30"
    fill="url(#paint0_linear_143_31286)" />
  <path
    d="M21.5088 20C21.5088 8.95432 30.4631 0 41.5088 0H163.412V121.903C163.412 132.949 154.458 141.903 143.412 141.903H41.5088C30.4631 141.903 21.5088 132.949 21.5088 121.903V20Z"
    fill="#F1F7FF" />
  <path
    d="M70.6612 54.3198C71.0378 54.3198 71.2275 54.0992 71.323 53.7522C72.2995 48.4878 72.2376 48.3614 77.7226 47.3217C78.0992 47.2585 78.3211 47.0392 78.3211 46.6599C78.3211 46.282 78.1005 46.0614 77.7212 45.9982C72.2685 44.8953 72.4259 44.7688 71.323 39.5663C71.2288 39.2206 71.0392 39.0001 70.6612 39.0001C70.2833 39.0001 70.0936 39.2206 69.9981 39.5663C68.8952 44.7688 69.0835 44.8939 63.5999 45.9982C63.2529 46.0601 63 46.2807 63 46.6599C63 47.0379 63.2529 47.2585 63.5985 47.3217C69.0849 48.4246 69.0216 48.4878 69.9981 53.7522C70.0923 54.0992 70.2833 54.3198 70.6612 54.3198ZM92.6898 96.3198C93.5103 96.3198 94.1088 95.72 94.2662 94.8686C96.5043 77.5945 98.932 74.9771 116.018 73.086C116.9 72.9918 117.5 72.3301 117.5 71.5096C117.5 70.6892 116.9 70.0597 116.018 69.9333C98.932 68.0422 96.5043 65.4261 94.2662 48.1507C94.1088 47.2993 93.5103 46.7317 92.6898 46.7317C91.8693 46.7317 91.2722 47.2993 91.1457 48.1507C88.9076 65.4261 86.4489 68.0422 69.3941 69.9333C68.4795 70.0597 67.8809 70.6905 67.8809 71.5096C67.8809 72.3301 68.4795 72.9918 69.3941 73.086C86.4166 75.3241 88.7812 77.6254 91.1457 94.8686C91.2722 95.72 91.8707 96.3198 92.6898 96.3198Z"
    fill="#121413" />
  <path
    d="M92.6895 44.7314C94.6299 44.7314 95.9296 46.1493 96.2324 47.7871L96.2422 47.8398L96.25 47.8936C96.8079 52.2001 97.3626 55.4652 98.1221 58.0029C98.8749 60.5185 99.7926 62.1899 100.995 63.4033C103.292 65.7207 107.07 66.8429 114.667 67.7637L116.238 67.9453L116.27 67.9492L116.302 67.9531C118.018 68.1991 119.5 69.5488 119.5 71.5098C119.5 73.413 118.068 74.8789 116.23 75.0752L116.229 75.0742C107.578 76.0322 103.444 77.145 100.995 79.6162C99.7926 80.8296 98.8749 82.5012 98.1221 85.0166C97.3626 87.5543 96.8079 90.8198 96.25 95.126L96.2422 95.1787L96.2324 95.2324C95.9402 96.8123 94.6814 98.3203 92.6895 98.3203C90.7022 98.3201 89.4113 96.8076 89.167 95.1621L89.166 95.1514L89.1641 95.1406C88.5745 90.8412 88.0007 87.6015 87.2314 85.0918C86.4695 82.606 85.5524 80.9629 84.3535 79.7656C83.1556 78.5694 81.5235 77.6654 79.0645 76.9238C76.5797 76.1745 73.3792 75.6275 69.1338 75.0693V75.0674C67.364 74.8602 65.9708 73.5046 65.8848 71.6885L65.8809 71.5098L65.8857 71.3262C65.9755 69.449 67.4379 68.1847 69.1201 67.9521L69.1465 67.9482L69.1738 67.9453C77.815 66.9871 81.952 65.8756 84.4062 63.4023C85.6109 62.1883 86.5302 60.516 87.2852 58.001C88.0467 55.4638 88.6043 52.1993 89.1621 47.8936L89.165 47.875L89.167 47.8564C89.42 46.1539 90.7533 44.7316 92.6895 44.7314ZM70.8926 37.0098C71.4341 37.0536 71.9914 37.2551 72.4561 37.6846C72.8799 38.0763 73.0942 38.5369 73.209 38.8945L73.2529 39.041L73.2676 39.0957L73.2793 39.1514C73.5668 40.5076 73.7421 41.3807 73.9385 42.043C74.127 42.6787 74.2679 42.8648 74.3398 42.9404C74.4047 43.0086 74.5747 43.1578 75.1904 43.3564C75.8318 43.5634 76.7274 43.7568 78.1182 44.0381H78.1172C78.5919 44.1279 79.1637 44.3496 79.6279 44.8486C80.136 45.395 80.3213 46.064 80.3213 46.6602C80.3212 47.2586 80.1351 47.9271 79.627 48.4727C79.1545 48.9799 78.5711 49.1986 78.0938 49.2852L78.0947 49.2871C76.6946 49.5525 75.7879 49.7355 75.1348 49.9365C74.505 50.1303 74.3325 50.2786 74.2705 50.3428C74.2061 50.4094 74.0661 50.5858 73.8877 51.2168C73.7021 51.8733 73.5421 52.7532 73.2891 54.1172L73.2734 54.2012L73.251 54.2832C73.1494 54.6521 72.9383 55.1874 72.4561 55.6338C71.9258 56.1246 71.2742 56.3203 70.6611 56.3203C70.05 56.3203 69.3985 56.1261 68.8672 55.6357C68.3823 55.1883 68.17 54.6506 68.0684 54.2764L68.0469 54.1973L68.0312 54.1172C67.7783 52.7536 67.6184 51.8785 67.4336 51.2285C67.2565 50.606 67.1192 50.4362 67.0576 50.373C66.9945 50.3084 66.8189 50.1598 66.1807 49.9609C65.5202 49.7552 64.6091 49.5647 63.2041 49.2822V49.2812C62.7322 49.1892 62.1822 48.9661 61.7305 48.498C61.3006 48.0526 61.0642 47.492 61.0117 46.9102L61 46.6602L61.0107 46.4102C61.063 45.829 61.2994 45.2675 61.7314 44.8203C62.1831 44.353 62.7326 44.1296 63.2051 44.0381V44.0371C64.6034 43.7555 65.5021 43.5624 66.1445 43.3555C66.7615 43.1567 66.9277 43.0084 66.9893 42.9434C67.0585 42.8702 67.1974 42.6867 67.3848 42.0479C67.5799 41.3828 67.7538 40.5108 68.042 39.1514L68.0537 39.0918L68.0703 39.0342C68.1722 38.6654 68.3839 38.1296 68.8672 37.6836C69.3979 37.1939 70.0493 37 70.6611 37L70.8926 37.0098Z"
    stroke="url(#paint1_linear_143_31286)" stroke-opacity="0.1" stroke-width="4" />
  <defs>
    <linearGradient id="paint0_linear_143_31286" x1="71.1217" y1="21.3389" x2="71.1217" y2="163.242"
      gradientUnits="userSpaceOnUse">
      <stop stop-opacity="0" />
      <stop offset="1" stop-color="#F1F7FF" />
    </linearGradient>
    <linearGradient id="paint1_linear_143_31286" x1="90.25" y1="39" x2="90.25" y2="96.3198"
      gradientUnits="userSpaceOnUse">
      <stop stop-color="#DFFF38" />
      <stop offset="1" stop-color="#DFFF38" stop-opacity="0" />
    </linearGradient>
  </defs>
</svg>