<svg width="149" height="18" viewBox="0 0 149 18" fill="none" xmlns="http://www.w3.org/2000/svg">
  <path d="M21.575 8.92192H12.7563V17.7406H21.575V8.92192Z" fill="#DFFF38" />
  <path d="M34.2525 0.103251H0V8.92188H34.2525V0.103251Z" fill="url(#paint0_linear_143_31299)" />
  <path d="M51.6462 17.7406H47.1064V4.44116H41.6194V0.0984154H57.1087V4.44116H51.6462V17.7406Z" fill="white" />
  <path d="M63.4139 17.7406H58.8374V0.0984154H63.4139V17.7406Z" fill="white" />
  <path
    d="M70.4453 17.7406H66.0287L66.0042 0.0984154H70.9252L77.9256 11.0603H78.024C77.9747 9.44436 77.9501 7.79179 77.9501 6.10228V0.0984154H82.3298V17.7406H77.4211L70.4453 6.77874H70.3469C70.4125 9.04246 70.4453 11.0931 70.4453 12.9301V17.7406Z"
    fill="white" />
  <path d="M97.1738 17.7406H84.9202V0.0984154H89.4846V13.41H97.1738V17.7406Z" fill="white" />
  <path
    d="M116.434 17.7406H111.598L110.085 13.5578H103.614L102.101 17.7406H97.512L104.008 0H109.938L116.434 17.7406ZM106.837 4.63823L105.066 9.49784H108.621L106.862 4.63823H106.837Z"
    fill="white" />
  <path
    d="M134.439 17.7406H128.878L124.167 11.3186L122.124 13.6314V17.7406H117.609V0.0984154H122.124V7.56628L128.78 0.0984154H134.095L127.267 7.8122L134.439 17.7406Z"
    fill="white" />
  <path d="M149 17.7406H135.688V0.0984154H148.815V4.28128H140.253V6.87715H148.213V10.9371H140.253V13.5578H149V17.7406Z"
    fill="white" />
  <defs>
    <linearGradient id="paint0_linear_143_31299" x1="0" y1="4.51254" x2="34.2525" y2="4.51254"
      gradientUnits="userSpaceOnUse">
      <stop stop-color="#DFFF38" stop-opacity="0" />
      <stop offset="1" stop-color="#DFFF38" />
    </linearGradient>
  </defs>
</svg>