<svg width="17" height="18" viewBox="0 0 17 18" fill="none" xmlns="http://www.w3.org/2000/svg">
  <path
    d="M8.25 2.33953C10.4194 2.33953 10.6767 2.34766 11.5339 2.38693C13.7357 2.48714 14.7642 3.53187 14.8644 5.7175C14.9037 6.57401 14.9111 6.8313 14.9111 9.00068C14.9111 11.1707 14.903 11.4273 14.8644 12.2839C14.7635 14.4674 13.7378 15.5142 11.5339 15.6144C10.6767 15.6537 10.4207 15.6618 8.25 15.6618C6.08063 15.6618 5.82333 15.6537 4.96682 15.6144C2.75953 15.5135 1.73646 14.4641 1.63625 12.2832C1.59698 11.4267 1.58885 11.1701 1.58885 9C1.58885 6.83063 1.59766 6.57401 1.63625 5.71682C1.73714 3.53187 2.76292 2.48646 4.96682 2.38625C5.82401 2.34766 6.08063 2.33953 8.25 2.33953ZM8.25 0.875C6.04339 0.875 5.76714 0.884479 4.90047 0.92375C1.94974 1.05917 0.309844 2.69635 0.174427 5.64979C0.134479 6.51714 0.125 6.79339 0.125 9C0.125 11.2066 0.134479 11.4835 0.17375 12.3502C0.309167 15.3009 1.94635 16.9408 4.89979 17.0763C5.76714 17.1155 6.04339 17.125 8.25 17.125C10.4566 17.125 10.7335 17.1155 11.6002 17.0763C14.5482 16.9408 16.1922 15.3036 16.3256 12.3502C16.3655 11.4835 16.375 11.2066 16.375 9C16.375 6.79339 16.3655 6.51714 16.3263 5.65047C16.1935 2.70245 14.5543 1.05984 11.6009 0.924427C10.7335 0.884479 10.4566 0.875 8.25 0.875ZM8.25 4.82781C5.94589 4.82781 4.07781 6.69589 4.07781 9C4.07781 11.3041 5.94589 13.1729 8.25 13.1729C10.5541 13.1729 12.4222 11.3048 12.4222 9C12.4222 6.69589 10.5541 4.82781 8.25 4.82781ZM8.25 11.7083C6.75432 11.7083 5.54167 10.4964 5.54167 9C5.54167 7.50432 6.75432 6.29167 8.25 6.29167C9.74568 6.29167 10.9583 7.50432 10.9583 9C10.9583 10.4964 9.74568 11.7083 8.25 11.7083ZM12.5874 3.68828C12.0484 3.68828 11.6117 4.125 11.6117 4.66328C11.6117 5.20156 12.0484 5.63828 12.5874 5.63828C13.1257 5.63828 13.5617 5.20156 13.5617 4.66328C13.5617 4.125 13.1257 3.68828 12.5874 3.68828Z"
    fill="#DFFF38" />
</svg>